<?xml version="1.0" standalone="no"?>
<!DOCTYPE svg PUBLIC "-//W3C//DTD SVG 1.1//EN" "http://www.w3.org/Graphics/SVG/1.1/DTD/svg11.dtd" >
<!--
2013-9-30: Created.
-->
<svg>
<metadata>
Created by iconfont
</metadata>
<defs>

<font id="iconfont" horiz-adv-x="1024" >
  <font-face
    font-family="iconfont"
    font-weight="500"
    font-stretch="normal"
    units-per-em="1024"
    ascent="896"
    descent="-128"
  />
    <missing-glyph />
    
    <glyph glyph-name="bangdingshouji" unicode="&#58890;" d="M143.438364 40.250582a26.776812 26.776812 0 0 0-20.799743 9.839879 510.393688 510.393688 0 0 0-42.502331 59.69069 27.02938 27.02938 0 1 0 46.159429 28.136795 449.52587 449.52587 0 0 1 38.045244-53.405054 27.176807 27.176807 0 0 0-3.542814-38.090957 28.079653 28.079653 0 0 0-17.359785-6.171353z m0 0M511.879522-127.998766a507.662294 507.662294 0 0 0-294.762069 93.541701 27.01338 27.01338 0 0 0 31.142472 44.148025 454.405809 454.405809 0 0 1 263.676739-83.598966c252.259738 0 457.571484 205.50603 457.571485 458.017193S764.13926 842.12638 511.879522 842.12638 54.43375 636.494638 54.43375 383.994903a456.680067 456.680067 0 0 1 18.388344-128.77555 27.028237 27.028237 0 0 0-51.862216-15.211241 513.387937 513.387937 0 0 0-20.456889 143.998219c0 282.350794 229.414306 511.993669 511.490817 511.993669s511.490818-229.642875 511.490818-511.993669-229.517162-511.993669-511.605102-511.993668z m0 0M648.906399 656.140109H372.829813a61.279242 61.279242 0 0 1-61.187815-61.244957v-421.811927a61.267814 61.267814 0 0 1 61.187815-61.244957h276.110871a61.279242 61.279242 0 0 1 61.187815 61.244957V594.895152a61.267814 61.267814 0 0 1-61.187815 61.244957z m-276.076586-40.822352h276.110871a20.399748 20.399748 0 0 0 20.411176-20.422605v-326.281679H352.39578v326.281679a20.399748 20.399748 0 0 0 20.434033 20.422605z m276.110871-462.657136h-276.110871a20.411176 20.411176 0 0 0-20.399748 20.422604V227.768263h316.88751v-54.685038a20.422605 20.422605 0 0 0-20.411176-20.422604zM422.189203 547.901447h179.654921a20.434033 20.434033 0 0 1 0 40.856638h-179.654921a20.434033 20.434033 0 0 1 0-40.856638z m62.273515-357.93843a27.542517 27.542517 0 1 1 27.553945 27.553945 27.553945 27.553945 0 0 1-27.553945-27.553945z m0 0"  horiz-adv-x="1024" />

    
    <glyph glyph-name="shouji" unicode="&#58935;" d="M767.516999-127.032976 256.481977-127.032976c-30.264281 0-54.753021 23.670096-54.753021 52.862975L201.728956 842.168977c0 29.193903 24.488741 52.865022 54.753021 52.865022l511.035022 0c30.264281 0 54.754045-23.671119 54.754045-52.865022l0-916.337955C822.270021-103.36288 797.78128-127.032976 767.516999-127.032976zM511.999488-74.168977c20.141736 0 36.503379 15.774265 36.503379 35.237549 0 19.464307-16.361643 35.254945-36.503379 35.254945-20.142759 0-36.500309-15.792685-36.500309-35.254945C475.498156-58.394712 491.857752-74.168977 511.999488-74.168977zM767.516999 789.304979 749.26531 789.304979 274.733667 789.304979 256.481977 789.304979l0-740.117464 18.251689 0L749.26531 49.187515l18.251689 0L767.516999 789.304979z"  horiz-adv-x="1024" />

    
    <glyph glyph-name="phone" unicode="&#59112;" d="M566.8 52.4h-107.6c-5 0-9 4-9 9s4 9 9 9h107.5c5 0 9-4 9-9s-4-9-8.9-9zM315.8 428.8c-1.7 0-3.4 0.5-5 1.5-4.1 2.7-5.2 8.3-2.5 12.4l143.4 215.1c2.8 4.1 8.3 5.2 12.4 2.5s5.2-8.3 2.5-12.4l-143.3-215.1c-1.7-2.6-4.6-4-7.5-4zM297.9 554.2c-1.6 0-3.2 0.4-4.6 1.3-4.3 2.5-5.6 8.1-3.1 12.3l53.8 89.6c2.6 4.2 8.1 5.6 12.3 3.1 4.3-2.5 5.6-8.1 3.1-12.3l-53.8-89.6c-1.7-2.8-4.7-4.4-7.7-4.4zM835.6 115.1h-645.2c-9.9 0-17.9 8-17.9 17.9s8 17.9 17.9 17.9h645.3c9.9 0 17.9-8 17.9-17.9s-8.1-17.9-18-17.9zM835.6 733.5h-645.2c-5 0-9 4-9 9s4 9 9 9h645.3c5 0 9-4 9-9-0.1-5-4.1-9-9.1-9zM763.9-64.1h-501.8c-49.4 0-89.6 40.2-89.6 89.6v717c0 49.4 40.2 89.6 89.6 89.6h501.9c49.4 0 89.6-40.2 89.6-89.6v-717c0-49.4-40.2-89.6-89.7-89.6zM262.1 796.2c-29.7 0-53.8-24.1-53.8-53.8v-717c0-29.7 24.1-53.8 53.8-53.8h501.9c29.7 0 53.8 24.1 53.8 53.8v717c0 29.7-24.1 53.8-53.8 53.8h-501.9z"  horiz-adv-x="1024" />

    
    <glyph glyph-name="icon-test" unicode="&#58919;" d="M637.669 679.857H386.342c-39.458 0-71.56-32.095-71.56-71.546V159.69c0-39.451 32.102-71.548 71.56-71.548h251.327c39.452 0 71.549 32.097 71.549 71.548V608.312c0 39.45-32.097 71.545-71.549 71.545z m-251.327-30h251.327c22.91 0 41.549-18.637 41.549-41.546v-17.282H344.782v17.282c0 22.909 18.644 41.546 41.56 41.546z m292.876-78.615v-340.385H344.782V571.242h334.436z m-41.549-453.099H386.342c-22.916 0-41.56 18.639-41.56 41.548v51.384h334.436v-51.384c0-22.91-18.639-41.548-41.549-41.548zM483.73 607.991h56.549c4.699 0 8.476 3.809 8.476 8.489a8.468 8.468 0 0 1-8.476 8.475H483.73c-4.688 0-8.485-3.801-8.485-8.475 0-4.68 3.798-8.489 8.485-8.489zM511.995 194.927c-17.167 0-31.101-13.923-31.101-31.112 0-17.179 13.934-31.102 31.101-31.102 17.178 0 31.112 13.923 31.112 31.102-0.001 17.189-13.934 31.112-31.112 31.112zM512.013 802.826C280.69 802.826 93.182 615.305 93.182 384c0-231.307 187.508-418.826 418.831-418.826 231.315 0 418.806 187.52 418.806 418.826-0.001 231.305-187.491 418.826-418.806 418.826z m-0.001-819.795c-221.459 0-400.973 179.524-400.973 400.969 0 221.442 179.514 400.969 400.973 400.969 221.453 0 400.949-179.526 400.949-400.969 0-221.444-179.496-400.969-400.949-400.969z"  horiz-adv-x="1024" />

    
    <glyph glyph-name="yanzhengma" unicode="&#59018;" d="M514.389-109.609c-269.967 0-489.595 219.642-489.595 489.595s219.628 489.609 489.595 489.609 489.595-219.642 489.595-489.595-219.628-489.609-489.595-489.609zM514.389 828.635c-247.385 0-448.635-201.25-448.635-448.635s201.264-448.635 448.635-448.635 448.635 201.25 448.635 448.635-201.25 448.635-448.635 448.635zM245.993 274.432c41.014 8.138 86.112 18.036 135.264 29.71-0.355-14.145-0.177-26.692 0.532-37.655-40.318-8.493-82.93-18.924-127.836-31.294l-7.959 39.239zM324.499 535.934l-12.206-145.872h53.575l13.79 178.763h-120.409v36.073h160.727l-16.438-214.821h33.423c-2.471-74.615-4.779-135.973-6.895-184.061-1.065-53.754-24.399-80.623-70.014-80.623-19.101 0-41.547 0.532-67.365 1.598-1.775 13.079-4.068 27.047-6.895 41.902 25.463-3.181 48.087-4.779 67.898-4.779 24.753 0 37.834 15.033 39.253 45.084 2.116 38.898 3.891 87.163 5.311 144.807h-127.303l16.971 181.945h36.577zM633.747 634.593l-10.076-16.971c42.789-76.035 95.833-131.373 159.13-166.025-11.318-14.145-20.685-26.528-28.112-37.137-62.231 45.971-112.981 101.308-152.235 166.025-36.073-64.006-86.466-121.474-151.17-172.387-6.363 9.188-15.21 20.33-26.528 33.423 70.369 48.797 124.3 113.158 161.778 193.086h47.213zM441.194 177.889h191.488c25.463 62.942 48.087 128.723 67.898 197.318l40.318-12.725c-20.862-63.297-42.967-124.832-66.301-184.593h93.361v-36.605h-326.765v36.605zM468.241 347.628l37.137 11.674c17.326-50.217 31.826-94.945 43.5-134.198l-39.253-13.258c-11.674 45.261-25.463 90.522-41.383 135.782zM495.302 439.392h218.535v-36.605h-218.535v36.605zM559.473 371.507l37.655 10.076c14.854-53.043 27.047-99.369 36.605-138.977l-38.721-11.141c-10.254 48.797-22.091 95.477-35.539 140.043z"  horiz-adv-x="1024" />

    
    <glyph glyph-name="password" unicode="&#59110;" d="M762 491.5h-35.8v73.7c0 127.2-92.7 230.7-206.6 230.7h-16.6c-113.9 0-206.6-103.5-206.6-230.7v-73.7h-35.8v73.7c0 147 108.7 266.6 242.4 266.6h16.6c133.7 0 242.4-119.6 242.4-266.6v-73.7zM797.8-63.6h-573c-49.4 0-89.5 40.2-89.5 89.5v394c0 49.4 40.2 89.5 89.5 89.5h573c49.4 0 89.5-40.2 89.5-89.5v-393.9c0.1-49.4-40.1-89.6-89.5-89.6zM224.8 473.6c-29.6 0-53.7-24.1-53.7-53.7v-393.9c0-29.6 24.1-53.7 53.7-53.7h573c29.6 0 53.7 24.1 53.7 53.7v393.9c0 29.6-24.1 53.7-53.7 53.7h-573zM511.3 61.8h-0.3c-9.9 0.2-17.8 8.3-17.6 18.2 0.7 41.4 1.2 86.6 0.9 108.7-49.1 9-90.4 55.4-90.4 105.9 0 59.2 48.2 107.4 107.4 107.4s107.4-48.2 107.4-107.4c0-33.8-16.2-66-43.3-86.2-8-5.9-19.2-4.3-25.1 3.7-5.9 7.9-4.3 19.1 3.7 25.1 18.3 13.7 28.9 34.6 28.9 57.5 0 39.5-32.1 71.6-71.6 71.6s-71.6-32.1-71.6-71.6c0-36.8 34.8-71.6 71.6-71.6 4.8 0 9.5-2 12.8-5.4 6.7-6.8 7.4-7.5 5.1-138.2-0.1-9.9-8.1-17.7-17.9-17.7z"  horiz-adv-x="1024" />

    
    <glyph glyph-name="geren" unicode="&#58990;" d="M0 896h1024v-1024H0zM307.904 313.856C184.768 255.29600000000005 64 83.71199999999999 64-32.639999999999986c0-50.752 45.888-95.36 98.176-95.36h693.248c52.352 0 98.24 44.608 98.24 95.36 0 31.808-9.6 67.072-25.216 103.04l0.576 0.32c-1.344 2.496-2.816 4.608-4.224 7.104-40.704 88.896-119.808 179.328-202.496 228.096a841.088 841.088 0 0 1-106.432 62.656c-7.168 3.52-12.48 6.016-15.296 7.872l-17.792-20.608L575.616 384l-23.36-26.304c-2.368-22.144 14.208-30.464 37.056-42.048 47.168-23.616 161.856-81.728 248.896-208.256 2.88-4.416 5.696-8.768 8.384-13.184 4.288-6.528 8.128-13.696 12.224-20.608 21.184-38.72 34.432-76.288 34.432-106.24 0-17.6-18.688-34.944-37.824-34.944H162.176c-19.072 0-37.824 17.344-37.824 34.944 0 84.8 98.624 239.232 209.472 291.968M512 837.12c-127.104 0-230.528-103.424-230.528-230.528S384.896 376.12800000000004 512 376.12800000000004s230.528 103.36 230.528 230.464S639.104 837.12 512 837.12m0-519.872a289.664 289.664 0 0 0-289.344 289.344C222.656 766.208 352.448 896 512 896s289.344-129.792 289.344-289.408A289.664 289.664 0 0 0 512 317.24800000000005"  horiz-adv-x="1024" />

    
    <glyph glyph-name="yanzhengma1" unicode="&#59455;" d="M557.24437 822.217724h193.531374c100.527353 0 182.774401-82.247048 182.774402-182.775425v-43.629596c0-100.528377-82.247048-182.775425-182.774402-182.775424H557.24437c-100.5294 0-182.775425 82.247048-182.775425 182.775424v43.629596c0 100.528377 82.246025 182.775425 182.775425 182.775425z m-71.798089-110.517872v-57.002134h309.759283v57.002134H485.446281z m0-110.780861v-57.002134h170.477355v57.002134H485.446281zM536.268681 466.204069h172.088036c12.427006 0 31.944486-14.412216 22.594556-22.586369l-9.146292-7.995075c-9.34993-8.17313-11.82121-16.397426-22.585346-22.585346l-154.027741-88.519903c-19.082576-10.968797-31.509581-3.605101-31.509582 17.454499V443.6177c0.001023 12.418819 10.168573 22.586369 22.586369 22.586369zM229.339857 889.975808h183.619651c-32.668985-40.654851-56.209074-88.962993-67.544214-141.789023h-133.725387c-35.915929 0-65.303178-29.387249-65.303178-65.303178v-497.751513c0-35.915929 29.387249-65.303178 65.303178-65.303178H698.753008c35.915929 0 65.302155 29.388272 65.302154 65.303178V345.313986a340.216909 340.216909 0 0 1 55.936875 19.620834v-348.019602c0-76.384539-62.507511-138.892049-138.891026-138.89205H229.339857c-76.391702 0-138.891026 62.507511-138.891026 138.89205v734.169564c0 76.391702 62.499324 138.891026 138.891026 138.891026z m225.875972-816.409449c-32.421345 0-58.705936-26.28459-58.705936-58.705936 0-32.429532 26.28459-58.714122 58.705936-58.714122s58.714122 26.28459 58.714123 58.714122c0 32.422369-26.292777 58.705936-58.714123 58.705936z"  horiz-adv-x="1024" />

    
    <glyph glyph-name="mima" unicode="&#58956;" d="M512 893.44C231.424 893.44 3.584 666.112 3.584 385.024S231.424-122.88 512-122.88s508.416 227.328 508.416 508.416S793.088 893.44 512 893.44z m0-941.568c-239.616 0-433.664 194.048-433.664 433.664S272.384 819.2 512 819.2s433.664-194.048 433.664-433.664-194.048-433.664-433.664-433.664zM396.288 436.224c-13.312 0-24.064 10.752-24.064 24.064v45.056c0 77.312 62.976 140.8 140.8 140.8 77.312 0 140.8-62.976 140.8-140.8 0-13.312-10.752-24.064-24.064-24.064s-24.064 10.752-24.064 24.064c0 50.688-41.472 92.16-92.16 92.16s-92.16-41.472-92.16-92.16V460.8c-1.024-13.824-11.776-24.576-25.088-24.576zM643.072 124.416H380.928c-32.768 0-59.904 26.624-59.904 59.904V399.872c0 32.768 26.624 59.904 59.904 59.904h262.656c32.768 0 59.904-26.624 59.904-59.904v-215.04c-0.512-33.792-26.624-60.416-60.416-60.416z m-262.144 286.72c-6.144 0-11.264-5.12-11.264-11.264V184.32c0-6.144 5.12-11.264 11.264-11.264h262.656c6.656 0 11.264 5.12 11.264 12.288v215.04c0 6.144-5.12 11.264-11.264 11.264H380.928zM512.512 373.248c-24.064 0-44.544-19.968-44.544-44.544v-12.288c0-18.432 11.776-34.816 28.16-41.472v-51.712c0-8.704 7.168-16.384 16.384-16.384 8.704 0 16.384 7.168 16.384 16.384v51.712c16.384 6.656 28.16 22.528 28.16 41.472v12.288c0 24.064-20.48 44.544-44.544 44.544z"  horiz-adv-x="1024" />

    
    <glyph glyph-name="yanzhengma2" unicode="&#58884;" d="M964.488 538.651c-4.886-70.287-4.001-141.573-15.954-210.638-20.436-118.087-85.131-211.523-181.248-282.803-66.926-49.632-134.379-98.542-201.627-147.744-30.01-21.956-60.986-23.348-89.619-2.313-76.064 55.874-153.24 110.382-227.13 169.024-94.745 75.195-153.822 174.919-163.748 295.15-9.22 111.697-5.526 224.52-5.772 336.852-0.056 24.462 15.402 43.942 39.332 51.668 127.702 41.235 255.465 82.312 383.843 121.367 16.21 4.933 37.126 0.844 54.17-4.477 118.446-36.983 236.472-75.302 354.56-113.421 32.716-10.561 48.404-32.302 48.547-66.604 0.2-48.583 0.051-97.166 0.051-145.748 1.535-0.103 3.065-0.21 4.595-0.313z m-840.91-1.622c0-37.51-0.604-75.036 0.107-112.536 2.564-135.136 57.599-245.743 162.06-329.84C351.91 41.386 422.869-5.892 490.884-56.9c20.4-15.299 36.871-14.966 57.087 0.277 63.805 48.112 129.089 94.259 192.878 142.386 100.865 76.106 162.588 176.398 170.698 303.302 5.863 91.7 2.604 183.99 3.3 276.024 0.184 24.667-12.367 38.405-35.93 45.886-111.763 35.469-223.076 72.36-334.983 107.363-14.46 4.523-32.685 5.05-47.032 0.578-112.767-35.156-224.899-72.344-337.501-108.023-24.924-7.895-36.155-22.912-35.899-48.537 0.42-41.777 0.118-83.555 0.077-125.328zM519.537 588.708c70.753 0.015 141.512 0.082 212.265-0.041 13.616-0.026 29.79 1.74 28.577-19.188-0.998-17.186-10.986-24.723-29.002-24.467-51.99 0.741-104.052-1.142-155.976 0.844-26.203 1.003-33.955-7.977-33.724-33.264 0.972-106.55 0.64-213.12 0.015-319.674-0.056-10.003-2.911-22.427-9.297-29.114-4.385-4.595-19.31-4.503-25.512-0.415-5.771 3.802-8.616 15.652-8.662 23.977-0.548 108.264-0.338 216.528-0.384 324.791-0.015 32.89-0.159 33.034-32.644 33.085-49.443 0.082-98.89 0.02-148.333 0.025-5.116 0-11.911-2.041-15.022 0.466-8.79 7.087-20.615 14.946-22.933 24.514-3.884 16.03 10.269 18.456 23.25 18.45 72.462-0.025 144.92-0.004 217.382 0.01z"  horiz-adv-x="1024" />

    
    <glyph glyph-name="yonghuming" unicode="&#58894;" d="M511.700176 323.735311c52.369315 0 103.139567-10.293968 150.911575-30.482139 46.172946-19.488581 87.648643-47.472184 123.227796-83.151279 35.679094-35.679094 63.562756-77.154792 83.151279-123.227796 12.392739-29.282842 20.987703-59.764981 25.884833-90.946711H128.524693c4.797189 31.281671 13.492094 61.663869 25.884833 90.946711 19.488581 46.172946 47.472184 87.648643 83.151278 123.227796 35.679094 35.679094 77.154792 63.562756 123.227796 83.151279 47.772009 20.188171 98.54226 30.482139 150.911576 30.482139m0 59.964865c-247.255124 0-447.737654-200.48253-447.737654-447.737654h895.475307c0 247.255124-200.48253 447.737654-447.737653 447.737654zM511.700176 771.472965c50.770252 0 98.442319-19.788405 134.321296-55.567441 35.878977-35.878977 55.567441-83.551044 55.567441-134.321296s-19.788405-98.442319-55.567441-134.321296c-35.878977-35.878977-83.551044-55.567441-134.321296-55.567441s-98.442319 19.788405-134.321296 55.567441c-35.878977 35.878977-55.567441 83.551044-55.567441 134.321296s19.788405 98.442319 55.567441 134.321296c35.878977 35.779036 83.551044 55.567441 134.321296 55.567441m0 59.964864c-138.019129 0-249.853601-111.834472-249.853602-249.853601s111.834472-249.853601 249.853602-249.853601 249.853601 111.834472 249.853601 249.853601-111.834472 249.853601-249.853601 249.853601z"  horiz-adv-x="1024" />

    
    <glyph glyph-name="ziyuanxhdpi" unicode="&#58925;" d="M511.999723 564.086206m-117.748854 0a117.748854 117.748854 0 1 1 235.497708 0 117.748854 117.748854 0 1 1-235.497708 0ZM511.999723 895.999446A511.999723 511.999723 0 1 1 1025.10767 383.999723 512.276779 512.276779 0 0 1 511.999723 895.999446zM792.380524 116.363504a24.935051 24.935051 0 0 0-24.935052 24.935052 255.445749 255.445749 0 0 1-510.614442 0 24.935051 24.935051 0 0 0-49.870103 0 304.76174 304.76174 0 0 0 205.29859 288.138372 167.896013 167.896013 0 1 0 199.480412 0 304.76174 304.76174 0 0 0 205.575646-288.138372 24.935051 24.935051 0 0 0-24.935051-24.935052z"  horiz-adv-x="1025" />

    
    <glyph glyph-name="mima1" unicode="&#58922;" d="M511.939582-128l-13.025575 7.608316A875.301412 875.301412 0 0 0 65.101964 610.023924a53.482495 53.482495 0 0 0 32.779593 51.239681A1700.277521 1700.277521 0 0 1 479.004717 884.665162a53.741281 53.741281 0 0 0 66.025002 0 1699.501163 1699.501163 0 0 1 381.05415-223.401557 53.482495 53.482495 0 0 0 32.779593-51.239681 877.406207 877.406207 0 0 0-122.181622-421.079758 877.388954 877.388954 0 0 0-311.630421-309.33585z m-1.242174 971.811436A1751.534454 1751.534454 0 0 0 118.101391 613.595175a2.053038 2.053038 0 0 1-1.242174-2.053038c8.212151-281.024632 155.599555-533.893318 395.080365-679.469219 239.567072 145.575901 386.954477 398.530849 395.080365 679.469219a2.087543 2.087543 0 0 1-1.242174 2.053038A1751.120396 1751.120396 0 0 0 513.268018 843.811436a2.00128 2.00128 0 0 1-2.5016 0zM721.00438 521.070459a11.214072 11.214072 0 0 1-15.83772 0L458.888398 274.792196l-66.232032 66.232032a11.196819 11.196819 0 1 1-15.820467-15.83772l73.874853-73.874853a3.605755 3.605755 0 0 1 0.241533-0.293291 11.162314 11.162314 0 0 1 15.820468 0l254.231627 254.231628a11.196819 11.196819 0 0 1 0 15.820467zM458.853893 230.487987a28.25946 28.25946 0 0 0-20.116319 8.332918c-0.293291 0.293291-0.586582 0.603835-0.828116 0.879873l-73.271018 73.288271a28.449237 28.449237 0 1 0 40.215385 40.232638l54.034573-54.034572 234.080803 234.080803a28.483742 28.483742 0 0 0 40.232638 0 28.466489 28.466489 0 0 0 0-40.215386L478.970212 238.820905a28.190451 28.190451 0 0 0-20.116319-8.332918z"  horiz-adv-x="1024" />

    
    <glyph glyph-name="B" unicode="&#59130;" d="M812.97408 513.024h-32.36864V582.6304a272.256 272.256 0 1 1-544.512 0V513.024h-25.0624A113.91488 113.91488 0 0 1 97.28 399.22688v-367.32928A113.91488 113.91488 0 0 1 211.03104-81.92h601.94304A113.90976 113.90976 0 0 1 926.72 31.8976V399.22688A113.90976 113.90976 0 0 1 812.97408 513.024zM305.7152 582.6304a202.63424 202.63424 0 1 0 405.26848 0V513.024H305.7152V582.6304zM857.088 31.8976a44.1856 44.1856 0 0 0-44.12416-44.15488H211.03104a44.19584 44.19584 0 0 0-44.11904 44.15488V399.22688a44.19584 44.19584 0 0 0 44.11904 44.16512h601.94304a44.1856 44.1856 0 0 0 44.12416-44.16v-367.3344z m-331.71456 309.9648a62.69952 62.69952 0 0 1-34.816-114.82112v-103.45984a34.816 34.816 0 1 1 69.632 0v103.45984a62.69952 62.69952 0 0 1-34.80576 114.82112z"  horiz-adv-x="1024" />

    
    <glyph glyph-name="mima2" unicode="&#59309;" d="M840.06912 468.1216h-72.90368V586.16832C767.16544 717.47072 654.99648 824.32 517.12 824.32S267.07968 717.47072 267.07968 586.16832V468.1216h-72.9088A81.56672 81.56672 0 0 1 112.64 386.7136v-361.6256A81.56672 81.56672 0 0 1 194.17088-56.32h645.89824A81.56672 81.56672 0 0 1 921.6 25.088V386.7136a81.56672 81.56672 0 0 1-81.53088 81.408zM323.5072 586.16832c0 100.23936 86.85568 181.79072 193.6128 181.79072s193.6128-81.55648 193.6128-181.79072V468.1216h-387.2256V586.16832zM865.17248 25.088a25.088 25.088 0 0 0-25.088-25.088H194.17088a25.088 25.088 0 0 0-25.088 25.088V386.7136a25.088 25.088 0 0 0 25.088 25.088h645.89824a25.088 25.088 0 0 0 25.088-25.088v-361.6256zM576.55296 260.35712a53.248 53.248 0 0 1-106.44992 0 51.51744 51.51744 0 0 1 24.64256-43.71968v-82.7392a28.59008 28.59008 0 0 1 57.1648 0v82.7392a51.51744 51.51744 0 0 1 24.64256 43.71968z"  horiz-adv-x="1024" />

    
    <glyph glyph-name="icon_cancel" unicode="&#58901;" d="M952.661333 824.661333C916.650667 861.866667 850.346667 857.258667 807.338667 813.056L82.944 88.661333C39.936 45.653333 34.133333-19.456 71.338667-56.661333c36.010667-37.205333 102.314667-32.597333 145.322666 11.605333l724.394667 724.394667c43.008 43.008 48.810667 108.117333 11.605333 145.322666zM941.056 88.746667L216.661333 812.970667C173.653333 856.064 108.544 861.866667 71.338667 824.661333 34.133333 788.650667 38.741333 722.346667 82.944 679.338667l724.394667-724.394667c43.008-43.008 108.117333-48.810667 145.322666-11.605333 37.205333 37.205333 31.402667 102.314667-11.605333 145.322666z"  horiz-adv-x="1024" />

    
    <glyph glyph-name="renyuanzhanghu" unicode="&#58983;" d="M576 336c-59.8 0-116.1 23.3-158.4 65.6C375.3 443.9 352 500.2 352 560s23.3 116.1 65.6 158.4C459.9 760.7 516.2 784 576 784s116.1-23.3 158.4-65.6C776.7 676.1 800 619.8 800 560s-23.3-116.1-65.6-158.4C692.1 359.3 635.8 336 576 336z m0 384c-88.2 0-160-71.8-160-160s71.8-160 160-160 160 71.8 160 160-71.8 160-160 160zM928-16c-17.7 0-32 14.3-32 32 0 176.4-143.6 320-320 320S256 192.4 256 16c0-17.7-14.3-32-32-32s-32 14.3-32 32c0 51.8 10.2 102.1 30.2 149.5 19.3 45.7 47 86.8 82.3 122 35.3 35.3 76.3 62.9 122 82.3 47.4 20 97.7 30.2 149.5 30.2s102.1-10.2 149.5-30.2c45.7-19.3 86.8-47 122-82.3 35.3-35.3 62.9-76.3 82.3-122 20-47.4 30.2-97.7 30.2-149.5 0-17.7-14.3-32-32-32zM320 343.6c-1.8 0-3.5 0.1-5.3 0.4-38.4 6.4-73.5 26.4-98.9 56.1-25.7 30.1-39.8 68.4-39.8 108s14.1 78 39.8 108c25.4 29.7 60.5 49.6 98.9 56.1 17.4 2.9 33.9-8.8 36.9-26.3 2.9-17.4-8.8-33.9-26.3-36.9-49.4-8.3-85.3-50.8-85.3-101s35.9-92.7 85.3-101c17.4-2.9 29.2-19.4 26.3-36.9-2.7-15.4-16.2-26.5-31.6-26.5zM96 95.3c-17.7 0-32 14.3-32 32 0 69.9 26 136.8 73.3 188.3 47 51.2 110.8 82.8 179.8 89 17.6 1.6 33.2-11.4 34.7-29s-11.4-33.2-29-34.7C211.8 330.8 128 239 128 127.3c0-17.6-14.3-32-32-32z"  horiz-adv-x="1024" />

    
    <glyph glyph-name="xiugai-copy" unicode="&#58916;" d="M932.981 251.462c-16.379 0-35.29-13.401-35.29-29.78v-120.165c0-57.030-46.011-103.189-102.594-103.189h-569.106c-56.732 0-102.594 46.159-102.594 103.189v567.914c0 57.030 45.862 103.189 102.594 103.189h252.091c16.379 0 29.632-1.489 29.632 14.89s-13.252 44.67-29.632 44.67h-295.87c-65.368 0-118.377-53.307-118.377-119.122v-655.171c0-65.815 53.009-119.122 118.377-119.122h656.66c65.368 0 118.377 53.307 118.377 119.122v163.793c0.001 16.379-7.891 29.78-24.27 29.78zM247.731 153.037c-4.765-32.46 17.422-54.2 49.584-48.245l188.808 34.099-209.208 210.549-29.185-196.403zM639.643 615.976c23.229 23.377 60.603 23.377 83.832 0l41.842-41.99c23.080-23.377 23.080-61.050 0-84.278l-188.363-189.554c-23.080-23.229-60.603-23.229-83.683 0l-41.842 42.14c-23.080 23.229-23.080 60.901 0 84.278l188.214 189.405zM535.113 173.736l355.728 358.11-209.208 210.548-355.728-357.962 209.208-210.697zM935.809 591.406c34.694 34.844 24.42 81.152-10.274 115.995l-83.683 84.279c-34.694 34.844-90.831 34.844-125.525 0l209.208-210.548 10.274 10.274z"  horiz-adv-x="1024" />

    
    <glyph glyph-name="ziyuan" unicode="&#58910;" d="M664.05295 391.440576a349.486043 349.486043 0 0 1-87.371511 54.220431 228.374101 228.374101 0 1 1-239.719137 0c-146.52777-62.397698-252.169209-235.741007-252.169208-439.288633a29.467626 29.467626 0 0 1 29.467625-29.467626h368.345324a276.111655 276.111655 0 0 0 181.446907 414.535828zM874.599137 277.179856a221.007194 221.007194 0 1 1 0-312.577842 221.37554 221.37554 0 0 1 0 312.577842z m-41.696691-270.881151a162.071942 162.071942 0 1 0 0 229.18446 162.071942 162.071942 0 0 0 0-229.479136zM814.116835 150.02705h-66.302159v66.302159a29.467626 29.467626 0 0 1-58.935252 0v-66.302159h-66.302158a29.467626 29.467626 0 0 1 0-58.935251h66.302158v-66.302159a29.467626 29.467626 0 0 1 58.935252 0v66.302159h66.302159a29.467626 29.467626 0 0 1 0 58.935251z"  horiz-adv-x="1024" />

    
    <glyph glyph-name="tianjiayonghu1" unicode="&#58928;" d="M377.717324 896a219.381718 219.381718 0 1 1 0-438.763436 219.381718 219.381718 0 0 1 0 438.763436z m0-97.502986a121.878732 121.878732 0 1 0 0-243.757464 121.878732 121.878732 0 0 0 0 243.757464zM353.341577 384.109325c52.164097 0 102.719395-11.74911 148.692054-34.028542a48.751493 48.751493 0 1 0-42.535678-87.752687A242.563053 242.563053 0 0 1 353.341577 286.60634000000005c-132.360303 0-240.052351-105.473855-243.659961-236.932256L109.584113 42.84887500000002v-73.127239h243.757464a48.751493 48.751493 0 0 0 48.629615-45.095131L402.09307-79.02985699999999a48.751493 48.751493 0 0 0-45.095131-48.629614L353.341577-127.78134999999997H60.83262a48.751493 48.751493 0 0 0-48.629614 45.095131L12.081128-79.02985699999999v121.878732c0 188.473271 152.787179 341.26045 341.260449 341.26045zM962.735238 152.53973399999995a48.751493 48.751493 0 0 0 3.656362-97.381107L962.735238 55.036748999999986H597.099042a48.751493 48.751493 0 0 0-3.656362 97.381107L597.099042 152.53973399999995h365.636196zM779.91714 335.35783200000003a48.751493 48.751493 0 0 0 48.629614-45.09513l0.121879-3.656362v-365.636197a48.751493 48.751493 0 0 0-97.381107-3.656362L731.165647-79.02985699999999V286.60634000000005a48.751493 48.751493 0 0 0 48.751493 48.751492z"  horiz-adv-x="1024" />

    
    <glyph glyph-name="gou" unicode="&#59027;" d="M906.756 691.144c-12.826 0-24.411-5.29-32.712-13.798l-0.039 0.04-491.199-491.738L152.59 416.793l-0.069-0.067c-8.372 9.4-20.561 15.326-34.14 15.326-25.245 0-45.71-20.465-45.71-45.71 0-13.513 5.866-25.651 15.188-34.02l-0.051-0.05 262.514-263.568c0.06-0.06 0.113-0.124 0.174-0.184 8.287-8.385 19.794-13.582 32.515-13.582 12.733 0 24.252 5.208 32.54 13.606l522.54 523.626c8.845 8.336 14.376 20.15 14.376 33.264 0 25.245-20.466 45.71-45.711 45.71z"  horiz-adv-x="1024" />

    
    <glyph glyph-name="lingdang-copy" unicode="&#59129;" d="M890.88 127.23199999999997l-56.32 83.8656v64.512a25.6 25.6 0 0 1-51.2 0v-80.128l67.7888-101.5808h-716.8l67.7888 101.5808V442.0608a287.488 287.488 0 0 0 56.32 172.032 291.84 291.84 0 0 0 143.7184 104.0896l24.8832 8.192 9.1136 24.4736A60.16 60.16 0 0 0 527.36 779.3152a61.44 61.44 0 0 0 21.9648-28.4672l8.7552-24.4736 24.8832-8.192A290.8672 290.8672 0 0 0 783.36 442.0608v-63.8976a25.6 25.6 0 1 1 51.2 0V442.0608a341.248 341.248 0 0 1-235.52 324.9152l-1.3824 0.4608-0.512 1.3824a111.5136 111.5136 0 0 1-209.1008 0l-0.512-1.3824-1.3824-0.4608a341.248 341.248 0 0 1-235.52-324.9152v-231.0144L94.72 127.23199999999997a53.7088 53.7088 0 0 1-1.9968-57.1392 55.8592 55.8592 0 0 1 48.8448-27.5456H332.8l0.7168-2.048a168.448 168.448 0 0 1 318.1568 0l0.7168 2.048h191.3856a55.8592 55.8592 0 0 1 48.7936 27.4944 53.8112 53.8112 0 0 1-1.6896 57.1904z m-329.8304-126.208a116.6336 116.6336 0 0 0-136.6016 0 118.784 118.784 0 0 0-35.84 41.6256h208.128a118.784 118.784 0 0 0-35.6864-41.6256z"  horiz-adv-x="1024" />

    
    <glyph glyph-name="shezhi" unicode="&#58973;" d="M684.44492534 23.60054518000004l-1e-8 14.68938469a389.03257012 389.03257012 0 0 1 49.68541451 28.43427422l13.27264199-7.65538153a124.42480489 124.42480489 0 0 1 169.7605708 45.48489671l49.71026961 86.098187a124.42480489 124.42480489 0 0 1 16.65294033 62.08812678 124.6485011 124.6485011 0 0 1-62.13783703 107.67244403l-13.32235226 7.68023664a392.36315819 392.36315819 0 0 1-0.17398595 56.32173549l14.24199224 8.22704962a124.6485011 124.6485011 0 0 1 62.13783705 107.67244402c0 21.74824295-5.76639127 43.22307945-16.65294033 62.08812677l-49.71026962 86.098187a123.57973029 123.57973029 0 0 1-75.4601893 57.91246412 123.38088923 123.38088923 0 0 1-94.3003815-12.42756741l-14.26684738-8.22704963A374.91485355 374.91485355 0 0 1 685.9859437 753.4467238899999l0 17.3488841c0 68.52560669-55.75006739 124.27567408-124.27567407 124.27567407l-99.42053926 0c-68.52560669 0-124.27567408-55.75006739-124.27567407-124.27567407l0-17.10033276c-16.55351979-7.97849827-32.43595093-17.0506225-47.64729344-27.19151748l-15.31076305 8.84842798a123.5051649 123.5051649 0 0 1-94.30038148 12.42756742 123.48030976 123.48030976 0 0 1-75.46018931-57.91246412l-49.71026963-86.098187c-10.88654905-18.86504733-16.65294032-40.33988381-16.65294032-62.08812677a124.6485011 124.6485011 0 0 1 62.13783703-107.67244401l14.21713713-8.20219449a396.01686301 396.01686301 0 0 1-0.27340649-55.52637117l-14.71423981-8.50045612a124.67335623 124.67335623 0 0 1-62.13783704-107.67244401c0-21.74824295 5.76639127-43.22307945 16.65294033-62.08812677l49.71026963-86.098187a124.39994975 124.39994975 0 0 1 169.76057078-45.4848967l12.87495983 7.4316853a387.56611717 387.56611717 0 0 1 49.31258748-28.70768072l0-15.55931439c0-68.52560669 55.75006739-124.27567408 124.27567407-124.27567408l99.42053926 1e-8c68.52560669 0 124.27567408 55.75006739 124.27567407 124.27567407z m-223.69621333-49.71026963a49.71026963 49.71026963 0 0 0-49.71026963 49.71026963l0 65.64241105c-20.82860298 6.83516208-41.33408921 15.65873493-61.09392138 27.06724182a325.13001851 325.13001851 0 0 0-56.29688036 41.35894433l-56.64485223-32.70935742a49.71026963 49.71026963 0 0 0-67.90422831 18.19395869l-49.71026964 86.098187a49.73512477 49.73512477 0 0 0 18.19395869 67.9042283l57.88760898 33.4053012c-4.47392427 21.47483648-6.7108864 43.42192052-6.7108864 65.4684251 0 23.04070996 2.46065835 46.23055075 7.43168532 69.12212991l-57.81304359 33.38044607a49.66055936 49.66055936 0 0 0-18.19395868 67.90422832l49.71026963 86.09818698a49.71026963 49.71026963 0 0 0 67.90422832 18.19395869l58.50898734-33.77812821a322.79363584 322.79363584 0 0 0 116.2971758 66.36320995L412.60431587 770.79560799a49.71026963 49.71026963 0 0 0 49.71026963 49.71026963l99.42053927 0a49.71026963 49.71026963 0 0 0 49.71026963-49.71026963l0-67.58111156c21.02744405-6.86001721 41.70691621-15.73330034 61.64073434-27.24122776a322.6196499 322.6196499 0 0 0 54.58187605-39.91734652l57.78818844 33.38044606a49.71026963 49.71026963 0 0 0 67.90422832-18.19395868l49.71026963-86.098187a49.73512477 49.73512477 0 0 0-18.19395869-67.90422831l-57.76333331-33.35559092a328.38604117 328.38604117 0 0 0 7.33226477-68.74930291c0-22.19563539-2.28667241-44.49069132-7.00914801-66.56205102l56.69456251-32.73421256a49.66055936 49.66055936 0 0 0 18.19395868-67.90422831l-49.71026963-86.09818701a49.71026963 49.71026963 0 0 0-67.90422831-18.19395867l-56.69456252 32.73421254a323.11675259 323.11675259 0 0 0-118.11160064-67.63082182l0-65.12045322a49.71026963 49.71026963 0 0 0-49.71026962-49.71026963l-99.4453944 0zM685.9859437 396.42756741c0 95.94082038-78.04512332 173.9859437-173.9859437 173.9859437s-173.9859437-78.04512332-173.9859437-173.9859437 78.04512332-173.9859437 173.9859437-173.98594371 173.9859437 78.04512332 173.9859437 173.98594371z m-273.40648295-1e-8a99.42053925 99.42053925 0 1 0 198.8410785 0 99.42053925 99.42053925 0 0 0-198.8410785 0z"  horiz-adv-x="1024" />

    
    <glyph glyph-name="wenjianjia1" unicode="&#58984;" d="M850.3296 521.0112v45.2096c0 47.4624-38.4 100.5568-89.2416 100.5568h-224.8704l-6.7584 12.4416a62.976 62.976 0 0 1-56.32 33.8944H226.6624A84.6336 84.6336 0 0 1 143.0528 627.2v-467.7632a84.6336 84.6336 0 0 1 83.6096-85.8624h578.56a84.6336 84.6336 0 0 1 83.6096 85.8624V446.4128c0 27.136-14.6944 54.2208-38.4 74.5472z m-64.4096 22.5792h-184.32l-30.72 58.7776h190.976c10.24 0 24.8832-19.2 24.8832-36.1472v-22.5792z m38.4-96v-286.976a21.0944 21.0944 0 0 0-19.2-21.4528h-578.56a20.48 20.48 0 0 0-19.2 21.4528V628.3264a21.0944 21.0944 0 0 0 19.2 21.4528h245.248l81.3568-153.6a33.28 33.28 0 0 1 28.2624-16.9472h209.92c12.4928-0.0512 32.9728-20.3776 32.9728-31.6416z"  horiz-adv-x="1024" />

    
    <glyph glyph-name="shangchuan" unicode="&#59393;" d="M185.288 455.746c9.741-0.028 19.112 3.72 26.212 10.366l261.013 252.862v-613.809c-2.499-20.676 12.239-39.445 32.887-41.945 20.675-2.5 39.444 12.211 41.943 32.857 0.37 3.01 0.37 6.078 0 9.088V716.758l262.66-249.566c13.915-15.052 37.4-16.018 52.48-2.102 0.738 0.68 1.477 1.363 2.157 2.102 15.053 14.796 15.308 38.99 0.54 54.07-0.198 0.199-0.368 0.37-0.54 0.569L550.609 817.261C540.017 825.809 527.066 830.92 513.492 832h-3.834a69.875 69.875 0 0 1-43.678-16.926L159.616 520.722c-15.079-14.341-15.675-38.196-1.335-53.248 0.427-0.482 0.881-0.908 1.335-1.362a36.662 36.662 0 0 1 25.672-10.366zM911.523 197.068c-20.617-0.313-37.146-17.068-37.146-37.687v-146.879l-726.836-3.293V159.383c0 20.617-16.527 37.373-37.146 37.687-20.815 0-37.685-16.869-37.685-37.687v-149.092a71.555 71.555 0 0 1 20.76-54.584 72.542 72.542 0 0 1 49.697-20.76h732.856c20.22-0.539 39.813 6.93 54.581 20.76 13.604 13.576 21.071 32.092 20.789 51.316v152.36c0 20.816-16.813 37.715-37.629 37.771-0.763 0-1.501-0.056-2.241-0.086z"  horiz-adv-x="1024" />

    
    <glyph glyph-name="zhankai" unicode="&#58921;" d="M482.7136 345.2928c4.1984-4.1984 9.1136-7.168 14.2336-9.1136 1.8432-0.8192 3.7888-0.8192 5.7344-1.1264 2.9696-0.7168 5.8368-1.536 8.9088-1.536s5.9392 0.9216 8.9088 1.536c1.9456 0.512 3.8912 0.512 5.7344 1.1264 5.3248 1.9456 10.1376 5.12 14.2336 9.1136l341.9136 341.9136c15.7696 15.36 16.0768 40.5504 0.8192 56.32-15.7696 15.36-40.96 14.9504-56.32-0.8192L511.6928 427.6224 196.5056 742.8096c-15.36 15.6672-40.5504 16.0768-56.32 0.7168-15.36-15.7696-14.9504-40.96 0.8192-56.32l341.7088-341.9136z m0 0M826.88 421.6832L511.6928 106.496 196.5056 421.6832c-15.36 15.6672-40.5504 16.0768-56.32 0.7168-15.36-15.7696-14.9504-40.96 0.8192-56.32l341.8112-341.8112c4.1984-4.1984 9.1136-7.168 14.2336-9.1136 1.8432-0.8192 3.7888-0.8192 5.7344-1.2288 2.9696-0.6144 5.8368-1.536 8.9088-1.536 3.072 0 5.9392 1.024 8.9088 1.536 1.9456 0.512 3.8912 0.512 5.7344 1.2288 5.3248 1.9456 10.1376 5.12 14.2336 9.1136l341.8112 341.8112c7.5776 7.3728 11.9808 17.408 12.0832 28.0576 0.2048 10.5472-3.8912 20.7872-11.264 28.3648-15.7696 15.1552-40.96 14.848-56.32-0.8192z m0 0"  horiz-adv-x="1024" />

    
    <glyph glyph-name="sousuo" unicode="&#58900;" d="M939.905-9.321l-254.891 254.89c27.446 29.672 49.32 63.492 65.076 100.739 18.179 42.975 27.396 88.604 27.396 135.62 0 47.02-9.217 92.652-27.395 135.63-17.55 41.494-42.669 78.752-74.657 110.738-31.988 31.986-69.247 57.103-110.743 74.653-42.98 18.178-88.618 27.395-135.642 27.395-47.02 0-92.653-9.218-135.63-27.396-41.492-17.55-78.75-42.666-110.736-74.653S125.58 659.05 108.03 617.557c-18.177-42.978-27.395-88.609-27.395-135.63 0-47.015 9.218-92.643 27.395-135.618 17.551-41.491 42.667-78.746 74.654-110.731s69.244-57.102 110.736-74.65c42.978-18.178 88.61-27.395 135.63-27.395 47.025 0 92.66 9.216 135.642 27.394a347 347 0 0 1 66.493 37.164l258.068-258.068c6.994-6.993 16.16-10.49 25.327-10.49s18.332 3.497 25.327 10.49c13.986 13.99 13.986 36.667-0.001 50.656z m-510.857 214.49c-152.617 0-276.78 124.153-276.78 276.76 0 152.617 124.163 276.78 276.78 276.78 152.63 0 276.802-124.163 276.802-276.78 0-152.607-124.173-276.76-276.802-276.76z"  horiz-adv-x="1024" />

    
    <glyph glyph-name="wenjianjia" unicode="&#59072;" d="M532.8 135H242.3c-11.5 0-20.8-9.3-20.8-20.8s9.3-20.8 20.8-20.8h290.5c11.5 0 20.8 9.3 20.8 20.8-0.1 11.5-9.4 20.8-20.8 20.8zM636.5 135H595c-11.5 0-20.8-9.3-20.8-20.8s9.3-20.8 20.8-20.8h41.5c11.5 0 20.8 9.3 20.8 20.8S648 135 636.5 135zM885.5 580.2v11.3c0 68.5-56 124.5-124.5 124.5H413.6l-44.3 63c-15 12.9-34.2 20-54 20h-93.8C153 799 97 743 97 674.5v-581C97 25 153-31 221.5-31h581C871-31 927 25 927 93.5V487.7c0 36.7-16.1 69.6-41.5 92.5zM761 674.5c41 0 74.9-29.9 81.6-69-12.6 4.3-26.1 6.8-40.1 6.8H506.6c-9.9 0-19.5 3.5-27 10l-36.8 52.3H761z m124.5-581c0-45.8-37.2-83-83-83h-581c-45.8 0-83 37.2-83 83v581c0 45.8 37.2 83 83 83h88.4c9.9 0 19.5-3.5 27-10l110.3-156.8c15-12.9 34.2-20 54-20h301.3c15.6 0 30-4.6 42.4-12l11.4-8.3c17.7-15.2 29.2-37.5 29.2-62.7v-394.2z"  horiz-adv-x="1024" />

    
    <glyph glyph-name="shanchu" unicode="&#59030;" d="M799.2 21.6c0-34.4-28-62.4-62.368-62.4H287.2a62.496 62.496 0 0 0-62.4 62.4V684h574.4v-662.4zM349.6 796c0 7.2 5.6 12.8 12.8 12.8h300c7.2 0 12.768-5.6 12.768-12.8v-37.6H349.6V796z m636.8-37.6H749.6V796c0 48-39.2 87.2-87.2 87.2h-300a87.392 87.392 0 0 1-87.2-87.2v-37.6H37.6C16.8 758.4 0 741.6 0 720.8s16.8-37.6 37.6-37.6h112v-661.6A137.6 137.6 0 0 1 287.2-116h449.6a137.6 137.6 0 0 1 137.6 137.6V684h112c20.8 0 37.6 16.8 37.6 37.6s-16.8 36.8-37.6 36.8zM512 72c20.8 0 37.6 16.8 37.6 37.6v400c0 20.8-16.768 37.6-37.6 37.6-20.8 0-37.6-16.8-37.6-37.6v-400c0-20.8 16.8-37.6 37.6-37.6m-175.2 0c20.8 0 37.6 16.8 37.6 37.6v400c0 20.8-16.8 37.6-37.6 37.6s-37.6-16.8-37.6-37.6v-400c0.8-20.8 17.6-37.6 37.6-37.6m350.4 0c20.8 0 37.632 16.8 37.632 37.6v400c0 20.8-16.8 37.6-37.632 37.6-20.768 0-37.6-16.8-37.6-37.6v-400c0-20.8 16.8-37.6 37.6-37.6"  horiz-adv-x="1024" />

    
    <glyph glyph-name="addto" unicode="&#59032;" d="M544 416h112a16 16 0 0 0 16-16v-16a16 16 0 0 0-16-16h-112v-112a16 16 0 0 0-16-16h-16a16 16 0 0 0-16 16v112h-112a16 16 0 0 0-16 16v16a16 16 0 0 0 16 16h112v112a16 16 0 0 0 16 16h16a16 16 0 0 0 16-16v-112z m-32-320c159.056 0 288 128.944 288 288s-128.944 288-288 288-288-128.944-288-288 128.944-288 288-288z m0-48c-185.568 0-336 150.432-336 336s150.432 336 336 336 336-150.432 336-336-150.432-336-336-336z"  horiz-adv-x="1024" />

    
    <glyph glyph-name="gongzuotai" unicode="&#58981;" d="M292.571-30.476h487.62a48.762 48.762 0 1 0 0-97.524H292.57a48.762 48.762 0 1 0 0 97.524z m0 633.905a48.762 48.762 0 0 0 48.762-48.762v-195.048a48.762 48.762 0 1 0-97.523 0V554.667a48.762 48.762 0 0 0 48.761 48.762z m195.048 97.523a48.762 48.762 0 0 0 48.762-48.762V359.62a48.762 48.762 0 1 0-97.524 0V652.19a48.762 48.762 0 0 0 48.762 48.762z m146.286-146.285a48.762 48.762 0 0 0 48.762-48.762v-146.286a48.762 48.762 0 1 0-97.524 0V505.905a48.762 48.762 0 0 0 48.762 48.762z m195.047 97.523a48.762 48.762 0 0 0 48.762-48.761v-243.81a48.762 48.762 0 1 0-97.524 0v243.81a48.762 48.762 0 0 0 48.762 48.761zM536.381 164.571a48.762 48.762 0 0 0 48.762-48.761v-146.286a48.762 48.762 0 1 0-97.524 0V115.81a48.762 48.762 0 0 0 48.762 48.761zM97.524 896h877.714a97.524 97.524 0 0 0 97.524-97.524v-585.143a97.524 97.524 0 0 0-97.524-97.523H97.524A97.524 97.524 0 0 0 0 213.333V798.476A97.524 97.524 0 0 0 97.524 896zM1024 798.476a48.762 48.762 0 0 1-48.762 48.762H97.524a48.762 48.762 0 0 1-48.762-48.762v-585.143a48.762 48.762 0 0 1 48.762-48.762h877.714A48.762 48.762 0 0 1 1024 213.333V798.476z"  horiz-adv-x="1072" />

    
    <glyph glyph-name="gengduo" unicode="&#58881;" d="M156.22551105 687.9325423a38.94230793 38.94230793 0 0 0-27.92893636 10.28320313 31.88401448 31.88401448 0 0 0-11.3784554 25.12995769V743.79041502c0 10.34405031 3.52914633 18.07166502 11.3784554 25.19080487a38.94230793 38.94230793 0 0 0 27.98978354 10.22235595H928.80438719a38.94230793 38.94230793 0 0 0 27.98978354-10.22235595c7.91015625-7.11914063 11.37845541-14.84675457 11.37845541-25.19080487v-20.4447119c0-10.16150877-3.58999429-18.13251219-11.37845541-25.12995769a38.94230793 38.94230793 0 0 0-27.98978354-10.28320313H156.22551105zM156.22551105 354.00225343a38.82061281 38.82061281 0 0 0-27.92893636 10.28320313 31.57977782 31.57977782 0 0 0-11.3784554 25.12995845v20.44471113c0 10.34405031 3.52914633 18.07166502 11.3784554 25.12995769a38.94230793 38.94230793 0 0 0 27.98978354 10.28320312H928.80438719a38.94230793 38.94230793 0 0 0 27.98978354-10.28320312c7.91015625-7.05829344 11.37845541-14.84675457 11.37845541-25.12995769v-20.44471113c0-10.34405031-3.46829917-18.01081707-11.37845541-25.12995845a38.88145998 38.88145998 0 0 0-27.98978354-10.28320313H156.22551105zM156.22551105 20.071965320000004a38.88145998 38.88145998 0 0 0-27.92893636 10.28320312 31.57977782 31.57977782 0 0 0-11.3784554 25.1299577v20.44471191c0 10.16150877 3.65084147 18.19335938 11.3784554 25.19080486a39.4290869 39.4290869 0 0 0 27.98978354 10.22235595H928.80438719a38.94230793 38.94230793 0 0 0 27.98978354-10.28320313 31.8231673 31.8231673 0 0 0 11.37845541-25.12995768v-20.44471191c0-10.34405031-3.46829917-18.07166502-11.37845541-25.1299577a38.94230793 38.94230793 0 0 0-27.98978354-10.3440503H156.22551105v0.06084718z"  horiz-adv-x="1102" />

    
    <glyph glyph-name="shanchu1" unicode="&#58942;" d="M512 864C246.4 864 32 649.6 32 384s214.4-480 480-480 480 214.4 480 480S777.6 864 512 864m201.6-681.6c-12.8-12.8-35.2-12.8-48 0L512 336 358.4 182.4c-12.8-12.8-35.2-12.8-48 0-12.8 12.8-12.8 35.2 0 48L464 384 310.4 537.6c-12.8 12.8-12.8 35.2 0 48 12.8 12.8 35.2 12.8 48 0L512 432l153.6 153.6c12.8 12.8 35.2 12.8 48 0 12.8-12.8 12.8-35.2 0-48L560 384l153.6-153.6c16-12.8 16-35.2 0-48m0 0z"  horiz-adv-x="1024" />

    
    <glyph glyph-name="icon_add" unicode="&#58882;" d="M921.6 486.4H614.4V793.6a102.4 102.4 0 1 1-204.8 0v-307.2H102.4a102.4 102.4 0 1 1 0-204.8h307.2v-307.2a102.4 102.4 0 1 1 204.8 0V281.6h307.2a102.4 102.4 0 1 1 0 204.8z"  horiz-adv-x="1024" />

    
    <glyph glyph-name="icon_ok" unicode="&#58888;" d="M1097.49538367 753.76384978a83.12855121 83.12855121 0 0 1-118.65234375 0l-503.66122139-504.09268486-213.57421875 213.93377088a84.56676129 84.56676129 0 0 1-119.80291228 0 84.56676129 84.56676129 0 0 1 0-119.8029115l271.89364325-271.82173346c16.89897045-16.97088103 38.68785504-25.16867883 61.48348778-25.16867884 21.78888459 0 44.58451733 8.05397742 61.48348702 25.16867884l561.83682548 561.76491491a85.64541925 85.64541925 0 0 1-1.00674736 120.09055384z"  horiz-adv-x="1303" />

    
    <glyph glyph-name="icon_recall" unicode="&#58889;" d="M588.946286-63.488H228.059429v139.629714h360.886857a223.378286 223.378286 0 0 1 223.378285 223.378286v6.436571a223.378286 223.378286 0 0 1-223.378285 223.378286H336.969143l125.659428-127.561143-97.206857-98.596571L73.874286 599.04 365.568 895.122286l97.206857-98.742857L337.188571 669.037714h251.757715a360.886857 360.886857 0 0 0 360.813714-360.886857v-10.678857a360.886857 360.886857 0 0 0-360.813714-360.886857z"  horiz-adv-x="1024" />

    
    <glyph glyph-name="icon_look" unicode="&#58891;" d="M744.727273 557.428364c-88.529455 0-160.581818-72.052364-160.581818-160.581819a47.476364 47.476364 0 0 1 94.859636 0c0 36.305455 29.509818 65.722182 65.722182 65.722182a47.476364 47.476364 0 0 1 0 94.859637zM744.727273 670.626909a274.059636 274.059636 0 0 1-273.687273-273.780364c0-150.993455 122.693818-273.687273 273.687273-273.687272 150.900364 0 273.687273 122.693818 273.687272 273.687272 0 150.900364-122.786909 273.687273-273.687272 273.687273z m0-452.701091a179.106909 179.106909 0 0 0-178.920728 178.920727c0 98.676364 80.244364 178.920727 178.920728 178.920728s178.920727-80.244364 178.920727-178.920728S843.403636 217.925818 744.727273 217.925818zM1204.037818 642.792727C1124.538182 702.370909 959.208727 802.536727 744.727273 802.536727c-356.258909 0-650.984727-281.134545-650.984728-424.680727 0-139.822545 301.335273-424.587636 650.984728-424.587636 214.481455 0 379.810909 100.165818 459.310545 159.837091 114.594909 86.202182 191.674182 192.698182 191.674182 264.750545 0 72.145455-77.079273 178.548364-191.767273 264.750545z m-60.416-456.610909C1074.269091 134.516364 930.164364 48.128 744.727273 48.128c-184.226909 0-329.076364 88.436364-398.987637 141.218909-102.493091 77.265455-157.137455 159.185455-157.137454 188.602182 0 36.119273 60.136727 119.621818 157.323636 191.767273C415.185455 621.381818 559.197091 707.863273 744.727273 707.863273s329.541818-86.481455 398.894545-137.960728c97.093818-72.238545 157.323636-155.741091 157.323637-191.767272 0-36.119273-60.229818-119.714909-157.323637-191.860364z"  horiz-adv-x="1489" />

    
    <glyph glyph-name="xitongguanli" unicode="&#58917;" d="M0 249.263158h1024v-53.894737H0v53.894737zM970.105263 48.451368h-399.36v-105.525894h155.055158c18.863158 0 34.169263-15.306105 34.169263-34.169263v-2.586948c0-18.863158-15.306105-34.169263-34.169263-34.169263H350.585263a34.169263 34.169263 0 0 0-34.169263 34.169263v2.586948c0 18.863158 15.252211 34.169263 34.169263 34.169263H507.149474v105.525894H107.789474a107.789474 107.789474 0 0 0-107.789474 107.789474V788.210526a107.789474 107.789474 0 0 0 107.789474 107.789474h862.315789a107.789474 107.789474 0 0 0 107.789474-107.789474v-631.969684a107.789474 107.789474 0 0 0-107.789474-107.789474z m17.839158 651.533474a107.789474 107.789474 0 0 1-107.789474 107.789474H186.906947a107.789474 107.789474 0 0 1-107.789473-107.789474v-445.170526a107.789474 107.789474 0 0 1 107.789473-107.789474h693.248a107.789474 107.789474 0 0 1 107.789474 107.789474v445.170526zM395.695158 498.903579L237.675789 366.753684l-78.955789 44.032 236.975158 220.26779 197.470316-132.149895 276.426105 220.213895h79.009684v-88.064L593.165474 366.753684 395.695158 498.903579z"  horiz-adv-x="1077" />

    
    <glyph glyph-name="yonghu" unicode="&#58977;" d="M513-60.3c-247.7 0-448 200.3-448 448S265.3 829.8 513 829.8s448-200.3 448-448-200.3-442.1-448-442.1z m0 830.9c-212.2 0-388.8-170.7-388.8-388.8C124.2 169.7 294.9-7 513-7c212.2 0 388.8 170.7 388.8 388.8S725.2 770.6 513 770.6z m0-430.2c-94.2 0-170.7 76.5-170.7 170.7S418.8 688.2 513 688.2s170.7-76.5 170.7-170.7S607.2 340.4 513 340.4z m0 289.1c-64.6 0-112-52.8-112-112s47.4-117.9 112-117.9 112 52.8 112 112-47.4 117.9-112 117.9z m0-689.8c-135.7 0-259 58.7-341.9 158.9l-11.8 17.8 11.8 17.8c76.5 117.9 206.2 188.5 347.8 188.5 135.7 0 265-64.6 341.9-182.6l11.8-17.8-11.8-17.8C778-1.1 648.7-60.3 513-60.3zM230.3 122.8C300.9 46.3 406.9-1 513-1c112 0 218.1 47.4 288.6 129.8-70.5 88.2-170.7 135.6-282.7 135.6s-218.1-53.3-288.6-141.6z"  horiz-adv-x="1024" />

    
    <glyph glyph-name="zhuti" unicode="&#58929;" d="M515.76225185-101.15815348000001c-195.87132682 0-316.14323675 28.51422815-367.71764148 87.13132563-27.23627615 30.93056475-25.89036089 60.10015289-24.85513482 68.31642548 0.55220148 7.31818667 18.84766815 230.49739378 34.24498727 334.54307555-5.59240533 3.79866075-17.46777125 8.56094341-24.33691497 11.32316445a278.92971141 278.92971141 0 0 0-16.84639288 7.14585126c-22.71550578 10.66780445-69.87108503 34.03745659-69.87108505 34.03745659-58.61588385 26.92680059-93.37909097 61.17178785-101.94003437 101.21671111-6.8691437 32.06894933 4.83267318 59.68630518 18.05395437 74.87488a49.57312948 49.57312948 0 0 0 5.07539911 5.00622223L243.1506963 857.55828148a48.43353125 48.43353125 0 0 0 77.42957037-21.36837689c30.20724148-89.4445037 117.75241482-102.8381203 167.28913541-102.83812029 13.18729955 0 21.57590755 1.03522608 21.64508444 1.07042133a51.29284267 51.29284267 0 0 0 12.80743348-0.03519526s8.21627259-1.00124445 20.95452918-1.00124445c48.57067141 0 134.45802667 13.32565333 164.1470483 102.63180326a48.50149452 48.50149452 0 0 0 77.77545482 21.3683769L1056.81047703 622.26462341a45.9941357 45.9941357 0 0 0 5.00622222-5.04020386c13.08292741-15.18978845 24.61240889-42.84112592 17.70928357-74.80813037-8.56215703-39.83617897-42.84112592-74.01198933-101.87207112-101.4909914 0-0.03519525-45.49897482-22.92182282-67.59188859-33.45127348-4.97102697-2.3471597-10.63260918-4.69431941-16.63886222-7.14585127-6.69802192-2.72702578-18.33066192-7.45654045-23.78592711-11.21879228 15.25896533-104.9437677 33.24374282-327.53557808 34.00347497-337.02858905 0.82890903-6.07664355 2.10564741-35.41856711-25.33815942-66.52268088-51.36687408-58.37558518-169.9469843-86.7162643-362.54029748-86.7162643zM220.19489185 50.97517511000001c8.14588208-9.63136475 59.40959763-55.12912592 295.56736-55.12912593 233.29359645 0 283.00386608 45.60213333 290.70191882 54.99198579-3.6251117 43.59964445-19.88410785 236.95147615-33.07140742 326.08529066-11.04645689 74.73773985 57.68502992 102.66578489 83.5414092 113.15882667 4.14211792 1.69301333 8.07791882 3.24645925 11.49549985 4.86786845 21.74824297 10.35711525 66.8673517 33.07140741 66.93652859 33.10660266 29.687808 13.87664118 41.83866785 24.95829333 46.60337778 30.68905244l-212.82209185 184.20470518c-64.07114903-94.89855525-175.19471882-106.56760415-225.837056-106.56760414-12.04770133 0-21.64508445 0.65536-27.54817897 1.17357986a310.20616059 310.20616059 0 0 0-27.89284977-1.17357986c-51.36687408 0-164.1470483 11.73701215-228.94273423 107.15378726l-216.6207526-184.82608356c4.93704533-5.76474075 17.12431408-16.63886222 45.91403616-29.86014341 1.38111052-0.65536 47.15557925-23.40484741 69.24970667-33.76196266 3.4855443-1.62262282 7.49052208-3.21005037 11.70181689-4.90185007 26.2022637-10.49425541 95.76144592-38.35312355 84.54144-113.36635734-13.565952-90.0998637-30.27399111-286.83529482-33.51923675-325.844992z"  horiz-adv-x="1024" />

    
    <glyph glyph-name="jia" unicode="&#58941;" d="M901.1 354.5H571.6V1c0-32.9-26.7-59.6-59.6-59.6-32.9 0-59.5 26.7-59.6 59.6V354.5H122.9c-32.5 0-58.9 26.4-58.9 58.9s26.4 58.9 58.9 58.9h329.5V767c0 32.9 26.7 59.6 59.6 59.6 32.9 0 59.5-26.7 59.6-59.6v-294.6h329.5c32.5 0 58.9-26.4 58.9-58.9 0-32.6-26.4-59-58.9-59z"  horiz-adv-x="1024" />

    
    <glyph glyph-name="fanhui" unicode="&#58944;" d="M595.3-49.9c-13.9 0-27.3 5.5-37.2 15.4l-383.5 382c-20.5 20.5-20.5 53.6 0 74.1L558.1 803.7c20.6 20.2 53.7 20 74.1-0.3 20.4-20.4 20.5-53.3 0.3-73.8l-346.2-345 346.3-345.1c15-15 19.5-37.5 11.4-57.1-8.3-19.5-27.4-32.3-48.7-32.3z"  horiz-adv-x="1024" />

    
    <glyph glyph-name="xiazhankai" unicode="&#59394;" d="M945.9 467.3c0-13.9-5.5-27.3-15.4-37.2l-382-383.5c-20.5-20.5-53.6-20.5-74.1 0L92.3 430.1c-20.2 20.6-19.99999999 53.7 0.3 74.1 20.4 20.4 53.3 20.5 73.8 0.3l345.00000001-346.2 345.09999999 346.3c15 15 37.5 19.5 57.1 11.4 19.5-8.3 32.3-27.4 32.3-48.7z"  horiz-adv-x="1024" />

    
    <glyph glyph-name="jinru" unicode="&#59395;" d="M428.7 817.9c13.9 0 27.3-5.5 37.2-15.4l383.5-382c20.5-20.5 20.5-53.6 0-74.1L465.9-35.700000000000045c-20.6-20.2-53.7-19.99999999-74.1 0.3-20.4 20.4-20.5 53.3-0.3 73.8l346.2 345.00000001-346.3 345.09999999c-15 15-19.5 37.5-11.4 57.1 8.3 19.5 27.4 32.3 48.7 32.3z"  horiz-adv-x="1024" />

    
    <glyph glyph-name="shangzhankai" unicode="&#59396;" d="M78.1 300.70000000000005c0 13.9 5.5 27.3 15.4 37.2l382 383.5c20.5 20.5 53.6 20.5 74.1 0L931.7 337.9c20.2-20.6 19.99999999-53.7-0.3-74.1-20.4-20.4-53.3-20.5-73.8-0.3l-345.00000001 346.2-345.09999999-346.3c-15-15-37.5-19.5-57.1-11.4-19.5 8.3-32.3 27.4-32.3 48.7z"  horiz-adv-x="1024" />

    
    <glyph glyph-name="xitongguanli1" unicode="&#58963;" d="M955.19467013 841.77634922H68.80532987a88.3738131 88.3738131 0 0 1-88.3738131-88.3738118V163.06546788000003a88.3738131 88.3738131 0 0 1 88.3738131-88.37381182h413.58944331v-88.37381309H335.25237508a29.60522682 29.60522682 0 1 1 0-58.98951996h353.49524984A29.60522682 29.60522682 0 1 1 688.74762492-13.682157029999985h-147.1423981v88.37381309h413.58944331a88.3738131 88.3738131 0 0 1 88.3738131 88.37381182V753.18160245a88.3738131 88.3738131 0 0 1-88.3738131 88.3738131zM68.80532987 781.68215703h886.38934026a29.60522682 29.60522682 0 0 0 29.38429316-29.60522681V251.43928098000004H39.42103671V753.18160245A29.60522682 29.60522682 0 0 0 68.80532987 781.68215703z m886.38934026-648.66378459H68.80532987A29.38429315 29.38429315 0 0 0 39.42103671 163.06546788000003v28.9424245h945.15792658V163.06546788000003a29.38429315 29.38429315 0 0 0-29.38429316-29.38429185z m0 0M267.20453846 400.12822124a28.94242322 28.94242322 0 0 1 15.46541765 3.97682158L434.89384801 494.46726541l124.60707587-88.37381181a31.15176897 31.15176897 0 0 1 30.48896537 0l195.52706055 145.15398732a24.52373301 24.52373301 0 0 1 13.69794183 22.0934523 24.96560165 24.96560165 0 0 1-17.23289348 20.98878138 31.37270394 31.37270394 0 0 1-28.94242451-3.97682158l-178.51510074-134.77006475-123.94427228 88.3738131a30.70990033 30.70990033 0 0 1-29.60522811 0l-167.68930956-98.09493206a23.63999446 23.63999446 0 0 1-12.81420196-27.61681733 27.39588236 27.39588236 0 0 1 26.73307747-18.11663074z m0 0"  horiz-adv-x="1024" />

    
    <glyph glyph-name="icontd" unicode="&#58918;" d="M336.869 479.010c19.239-19.24 42.264-34.633 67.394-45.038 25.109-10.405 52.324-15.815 79.499-15.815 27.175 0 54.37 5.41 79.479 15.815 25.149 10.405 48.174 25.798 67.413 45.038 19.2 19.22 34.616 42.245 45.017 67.393 10.403 25.111 15.798 52.285 15.798 79.5 0 27.176-5.395 54.369-15.798 79.499-10.401 25.11-25.817 48.134-45.017 67.374-19.239 19.22-42.265 34.634-67.413 45.018-25.109 10.423-52.304 15.815-79.479 15.815-27.176 0-54.39-5.393-79.499-15.815-25.131-10.385-48.156-25.799-67.394-45.018-19.238-19.24-34.652-42.265-45.018-67.374-10.442-25.13-15.835-52.324-15.835-79.499 0-27.216 5.393-54.389 15.835-79.5 10.366-25.148 25.78-48.173 45.018-67.393zM458.307-1.392h-153.757c-90.114 0-163.417 73.315-163.417 163.418 0 90.095 73.304 163.399 163.417 163.399h358.406c5.412 0 9.792 4.376 9.792 9.789 0 5.412-4.38 9.79-9.792 9.79l-358.406-0c-100.901 0-183-82.078-183-182.979 0-100.907 82.099-182.998 183-182.998h153.757c5.413 0 9.793 4.378 9.793 9.789 0 5.415-4.38 9.792-9.793 9.792zM882.864 135.116h-141.958v141.981c0 10.815-8.761 19.583-19.584 19.583-10.825 0-19.583-8.767-19.583-19.583v-141.981h-141.997c-10.825 0-19.583-8.765-19.583-19.58 0-10.815 8.758-19.585 19.583-19.585h141.998v-141.977c0-10.814 8.758-19.585 19.583-19.585 10.824 0 19.584 8.77 19.584 19.585v141.978h141.958c10.827 0 19.585 8.769 19.585 19.585-0.001 10.814-8.76 19.579-19.586 19.579z"  horiz-adv-x="1024" />

    
    <glyph glyph-name="tianjiayonghu" unicode="&#58947;" d="M639.9 354.3c76.4 44.2 127.9 126.8 127.9 221.5C767.7 717 653.2 831.5 512 831.5S256.3 717 256.3 575.8c0-89.6 46.1-168.4 115.8-214.1C193.5 303 64.5 134.8 64.5-63.5h63.9c0 211.5 172.1 383.6 383.6 383.6 44.9 0 87.8-8.1 127.9-22.4v56.6zM320.2 575.8c0 105.8 86 191.8 191.8 191.8s191.8-86 191.8-191.8S617.7 384 512 384s-191.8 86-191.8 191.8zM831.6 128.3V256.1h-63.9v-127.8H639.9v-63.9h127.8v-127.9h63.9V64.4h127.9v63.9z"  horiz-adv-x="1024" />

    


  </font>
</defs>
</svg>
